<svg version="1.2" xmlns="http://www.w3.org/2000/svg" viewBox="0 0 256 256" width="256" height="256">
	<style>
		.s0 { fill: #f3e0ce } 
		.s1 { fill: #221810 } 
	</style>
	<path id="Shape 1" fill-rule="evenodd" class="s0" d="m128 256c-70.78 0-128-57.22-128-128 0-70.78 57.22-128 128-128 70.78 0 128 57.22 128 128 0 70.78-57.22 128-128 128z"/>
	<path id="R" class="s1" aria-label="r"  d="m103.3 170.5q-5.8 0-8.5-2.7-2.5-2.9-2.5-8.6v-63.3q0-5.5 2.7-8.2 2.7-2.7 8.3-2.7 5.5 0 8 2.7 2.7 2.7 2.7 8.3v5.5q1.5-3.9 3.9-6.9 2.4-3.2 5.8-5.2 3.2-2.2 7.5-3.2 4.1-1.2 9.1-1.2 6.5 0 11 2.1 4.5 2.1 7.3 6.1 3 4 4.3 9.5 1.4 5.5 1.4 12.3v1.5q0 5.7-2.9 8.6-2.6 2.6-8.3 2.6-5.8 0-8.6-2.6-2.7-2.9-2.7-8.6v-0.3q0-2.4-0.3-4.5-0.3-2.1-1.2-3.6-0.7-1.7-2.4-2.5-1.6-1.1-4.3-1.1-3.7 0-7.3 1.2-3.4 1-6.1 3.1-2.7 2-4.5 4.9-1.7 2.8-1.7 6.1v39.4q0 5.7-2.5 8.6-2.5 2.7-8.2 2.7z"/>
</svg>